<svg width="233" height="50" viewBox="0 0 233 50" fill="none" xmlns="http://www.w3.org/2000/svg">
<path d="M70.28 13.96L65.42 23.36V28H62V23.36L57.14 13.96H61.02L63.74 19.84L66.44 13.96H70.28ZM76.738 28.16C75.6446 28.16 74.658 27.9267 73.778 27.46C72.9113 26.9933 72.2246 26.3267 71.718 25.46C71.2246 24.5933 70.978 23.58 70.978 22.42C70.978 21.2733 71.2313 20.2667 71.738 19.4C72.2446 18.52 72.938 17.8467 73.818 17.38C74.698 16.9133 75.6846 16.68 76.778 16.68C77.8713 16.68 78.858 16.9133 79.738 17.38C80.618 17.8467 81.3113 18.52 81.818 19.4C82.3246 20.2667 82.578 21.2733 82.578 22.42C82.578 23.5667 82.318 24.58 81.798 25.46C81.2913 26.3267 80.5913 26.9933 79.698 27.46C78.818 27.9267 77.8313 28.16 76.738 28.16ZM76.738 25.2C77.3913 25.2 77.9446 24.96 78.398 24.48C78.8646 24 79.098 23.3133 79.098 22.42C79.098 21.5267 78.8713 20.84 78.418 20.36C77.978 19.88 77.4313 19.64 76.778 19.64C76.1113 19.64 75.558 19.88 75.118 20.36C74.678 20.8267 74.458 21.5133 74.458 22.42C74.458 23.3133 74.6713 24 75.098 24.48C75.538 24.96 76.0846 25.2 76.738 25.2ZM95.4123 16.84V28H91.9923V26.48C91.6457 26.9733 91.1723 27.3733 90.5723 27.68C89.9857 27.9733 89.3323 28.12 88.6123 28.12C87.759 28.12 87.0057 27.9333 86.3523 27.56C85.699 27.1733 85.1923 26.62 84.8323 25.9C84.4723 25.18 84.2923 24.3333 84.2923 23.36V16.84H87.6923V22.9C87.6923 23.6467 87.8857 24.2267 88.2723 24.64C88.659 25.0533 89.179 25.26 89.8323 25.26C90.499 25.26 91.0257 25.0533 91.4123 24.64C91.799 24.2267 91.9923 23.6467 91.9923 22.9V16.84H95.4123Z" fill="url(#paint0_linear_1_1154)"/>
<path d="M97.1889 22.42C97.1889 21.26 97.4222 20.2467 97.8889 19.38C98.3689 18.5133 99.0289 17.8467 99.8689 17.38C100.722 16.9133 101.696 16.68 102.789 16.68C104.189 16.68 105.356 17.0467 106.289 17.78C107.236 18.5133 107.856 19.5467 108.149 20.88H104.509C104.202 20.0267 103.609 19.6 102.729 19.6C102.102 19.6 101.602 19.8467 101.229 20.34C100.856 20.82 100.669 21.5133 100.669 22.42C100.669 23.3267 100.856 24.0267 101.229 24.52C101.602 25 102.102 25.24 102.729 25.24C103.609 25.24 104.202 24.8133 104.509 23.96H108.149C107.856 25.2667 107.236 26.2933 106.289 27.04C105.342 27.7867 104.176 28.16 102.789 28.16C101.696 28.16 100.722 27.9267 99.8689 27.46C99.0289 26.9933 98.3689 26.3267 97.8889 25.46C97.4222 24.5933 97.1889 23.58 97.1889 22.42ZM109.298 22.4C109.298 21.2533 109.512 20.2467 109.938 19.38C110.378 18.5133 110.972 17.8467 111.718 17.38C112.465 16.9133 113.298 16.68 114.218 16.68C115.005 16.68 115.692 16.84 116.278 17.16C116.878 17.48 117.338 17.9 117.658 18.42V16.84H121.078V28H117.658V26.42C117.325 26.94 116.858 27.36 116.258 27.68C115.672 28 114.985 28.16 114.198 28.16C113.292 28.16 112.465 27.9267 111.718 27.46C110.972 26.98 110.378 26.3067 109.938 25.44C109.512 24.56 109.298 23.5467 109.298 22.4ZM117.658 22.42C117.658 21.5667 117.418 20.8933 116.938 20.4C116.472 19.9067 115.898 19.66 115.218 19.66C114.538 19.66 113.958 19.9067 113.478 20.4C113.012 20.88 112.778 21.5467 112.778 22.4C112.778 23.2533 113.012 23.9333 113.478 24.44C113.958 24.9333 114.538 25.18 115.218 25.18C115.898 25.18 116.472 24.9333 116.938 24.44C117.418 23.9467 117.658 23.2733 117.658 22.42ZM130.353 16.72C131.659 16.72 132.699 17.1467 133.473 18C134.259 18.84 134.653 20 134.653 21.48V28H131.253V21.94C131.253 21.1933 131.059 20.6133 130.673 20.2C130.286 19.7867 129.766 19.58 129.113 19.58C128.459 19.58 127.939 19.7867 127.553 20.2C127.166 20.6133 126.973 21.1933 126.973 21.94V28H123.553V16.84H126.973V18.32C127.319 17.8267 127.786 17.44 128.373 17.16C128.959 16.8667 129.619 16.72 130.353 16.72Z" fill="#1E293B"/>
<path d="M153.049 16.84L150.029 28H146.249L144.489 20.76L142.669 28H138.909L135.869 16.84H139.289L140.869 24.82L142.749 16.84H146.369L148.269 24.78L149.829 16.84H153.049ZM156.073 15.68C155.473 15.68 154.98 15.5067 154.593 15.16C154.22 14.8 154.033 14.36 154.033 13.84C154.033 13.3067 154.22 12.8667 154.593 12.52C154.98 12.16 155.473 11.98 156.073 11.98C156.66 11.98 157.14 12.16 157.513 12.52C157.9 12.8667 158.093 13.3067 158.093 13.84C158.093 14.36 157.9 14.8 157.513 15.16C157.14 15.5067 156.66 15.68 156.073 15.68ZM157.773 16.84V28H154.353V16.84H157.773ZM167.052 16.72C168.358 16.72 169.398 17.1467 170.172 18C170.958 18.84 171.352 20 171.352 21.48V28H167.952V21.94C167.952 21.1933 167.758 20.6133 167.372 20.2C166.985 19.7867 166.465 19.58 165.812 19.58C165.158 19.58 164.638 19.7867 164.252 20.2C163.865 20.6133 163.672 21.1933 163.672 21.94V28H160.252V16.84H163.672V18.32C164.018 17.8267 164.485 17.44 165.072 17.16C165.658 16.8667 166.318 16.72 167.052 16.72Z" fill="url(#paint1_linear_1_1154)"/>
<rect x="180.52" y="15" width="52" height="19" rx="9.5" fill="#DCFCE7"/>
<path d="M194.07 23.12C193.91 22.8267 193.69 22.6033 193.41 22.45C193.13 22.2967 192.803 22.22 192.43 22.22C192.017 22.22 191.65 22.3133 191.33 22.5C191.01 22.6867 190.76 22.9533 190.58 23.3C190.4 23.6467 190.31 24.0467 190.31 24.5C190.31 24.9667 190.4 25.3733 190.58 25.72C190.767 26.0667 191.023 26.3333 191.35 26.52C191.677 26.7067 192.057 26.8 192.49 26.8C193.023 26.8 193.46 26.66 193.8 26.38C194.14 26.0933 194.363 25.6967 194.47 25.19H192.07V24.12H195.85V25.34C195.757 25.8267 195.557 26.2767 195.25 26.69C194.943 27.1033 194.547 27.4367 194.06 27.69C193.58 27.9367 193.04 28.06 192.44 28.06C191.767 28.06 191.157 27.91 190.61 27.61C190.07 27.3033 189.643 26.88 189.33 26.34C189.023 25.8 188.87 25.1867 188.87 24.5C188.87 23.8133 189.023 23.2 189.33 22.66C189.643 22.1133 190.07 21.69 190.61 21.39C191.157 21.0833 191.763 20.93 192.43 20.93C193.217 20.93 193.9 21.1233 194.48 21.51C195.06 21.89 195.46 22.4267 195.68 23.12H194.07ZM201.166 26.67H198.386L197.926 28H196.456L198.966 21.01H200.596L203.106 28H201.626L201.166 26.67ZM200.786 25.55L199.776 22.63L198.766 25.55H200.786ZM211.654 21.02V28H210.254V23.46L208.384 28H207.324L205.444 23.46V28H204.044V21.02H205.634L207.854 26.21L210.074 21.02H211.654ZM214.438 22.15V23.9H216.788V25.01H214.438V26.86H217.088V28H213.038V21.01H217.088V22.15H214.438ZM220.77 28.07C220.284 28.07 219.844 27.9867 219.45 27.82C219.064 27.6533 218.757 27.4133 218.53 27.1C218.304 26.7867 218.187 26.4167 218.18 25.99H219.68C219.7 26.2767 219.8 26.5033 219.98 26.67C220.167 26.8367 220.42 26.92 220.74 26.92C221.067 26.92 221.324 26.8433 221.51 26.69C221.697 26.53 221.79 26.3233 221.79 26.07C221.79 25.8633 221.727 25.6933 221.6 25.56C221.474 25.4267 221.314 25.3233 221.12 25.25C220.934 25.17 220.674 25.0833 220.34 24.99C219.887 24.8567 219.517 24.7267 219.23 24.6C218.95 24.4667 218.707 24.27 218.5 24.01C218.3 23.7433 218.2 23.39 218.2 22.95C218.2 22.5367 218.304 22.1767 218.51 21.87C218.717 21.5633 219.007 21.33 219.38 21.17C219.754 21.0033 220.18 20.92 220.66 20.92C221.38 20.92 221.964 21.0967 222.41 21.45C222.864 21.7967 223.114 22.2833 223.16 22.91H221.62C221.607 22.67 221.504 22.4733 221.31 22.32C221.124 22.16 220.874 22.08 220.56 22.08C220.287 22.08 220.067 22.15 219.9 22.29C219.74 22.43 219.66 22.6333 219.66 22.9C219.66 23.0867 219.72 23.2433 219.84 23.37C219.967 23.49 220.12 23.59 220.3 23.67C220.487 23.7433 220.747 23.83 221.08 23.93C221.534 24.0633 221.904 24.1967 222.19 24.33C222.477 24.4633 222.724 24.6633 222.93 24.93C223.137 25.1967 223.24 25.5467 223.24 25.98C223.24 26.3533 223.144 26.7 222.95 27.02C222.757 27.34 222.474 27.5967 222.1 27.79C221.727 27.9767 221.284 28.07 220.77 28.07Z" fill="#0B6B3A"/>
<g filter="url(#filter0_dd_1_1154)">
<rect x="5" y="1" width="40" height="40" rx="12" fill="url(#paint2_linear_1_1154)"/>
<path d="M34.1667 14.3333H30.5556V12.9444C30.5556 12.4826 30.184 12.1111 29.7222 12.1111H20.2778C19.816 12.1111 19.4444 12.4826 19.4444 12.9444V14.3333H15.8333C15.3715 14.3333 15 14.7049 15 15.1667V17.1111C15 18.3507 15.7813 19.625 17.1493 20.6076C18.2431 21.3958 19.5729 21.8958 20.9688 22.0556C22.059 23.8646 23.3333 24.6111 23.3333 24.6111V27.1111H21.6667C20.441 27.1111 19.4444 27.8299 19.4444 29.0556V29.4722C19.4444 29.7014 19.6319 29.8889 19.8611 29.8889H30.1389C30.3681 29.8889 30.5556 29.7014 30.5556 29.4722V29.0556C30.5556 27.8299 29.559 27.1111 28.3333 27.1111H26.6667V24.6111C26.6667 24.6111 27.941 23.8646 29.0313 22.0556C30.4306 21.8958 31.7604 21.3958 32.8507 20.6076C34.2153 19.625 35 18.3507 35 17.1111V15.1667C35 14.7049 34.6285 14.3333 34.1667 14.3333ZM18.4479 18.8056C17.6007 18.1944 17.2222 17.5139 17.2222 17.1111V16.5556H19.4514C19.4861 17.6875 19.6528 18.6806 19.8958 19.5486C19.3715 19.3681 18.8819 19.1181 18.4479 18.8056ZM32.7778 17.1111C32.7778 17.6701 32.1632 18.3646 31.5521 18.8056C31.1181 19.1181 30.625 19.3681 30.1007 19.5486C30.3438 18.6806 30.5104 17.6875 30.5451 16.5556H32.7778V17.1111Z" fill="white"/>
</g>
<defs>
<filter id="filter0_dd_1_1154" x="0" y="0" width="50" height="50" filterUnits="userSpaceOnUse" color-interpolation-filters="sRGB">
<feFlood flood-opacity="0" result="BackgroundImageFix"/>
<feColorMatrix in="SourceAlpha" type="matrix" values="0 0 0 0 0 0 0 0 0 0 0 0 0 0 0 0 0 0 127 0" result="hardAlpha"/>
<feMorphology radius="2" operator="erode" in="SourceAlpha" result="effect1_dropShadow_1_1154"/>
<feOffset dy="2"/>
<feGaussianBlur stdDeviation="2"/>
<feComposite in2="hardAlpha" operator="out"/>
<feColorMatrix type="matrix" values="0 0 0 0 0 0 0 0 0 0 0 0 0 0 0 0 0 0 0.1 0"/>
<feBlend mode="normal" in2="BackgroundImageFix" result="effect1_dropShadow_1_1154"/>
<feColorMatrix in="SourceAlpha" type="matrix" values="0 0 0 0 0 0 0 0 0 0 0 0 0 0 0 0 0 0 127 0" result="hardAlpha"/>
<feMorphology radius="1" operator="erode" in="SourceAlpha" result="effect2_dropShadow_1_1154"/>
<feOffset dy="4"/>
<feGaussianBlur stdDeviation="3"/>
<feComposite in2="hardAlpha" operator="out"/>
<feColorMatrix type="matrix" values="0 0 0 0 0 0 0 0 0 0 0 0 0 0 0 0 0 0 0.1 0"/>
<feBlend mode="normal" in2="effect1_dropShadow_1_1154" result="effect2_dropShadow_1_1154"/>
<feBlend mode="normal" in="SourceGraphic" in2="effect2_dropShadow_1_1154" result="shape"/>
</filter>
<linearGradient id="paint0_linear_1_1154" x1="57" y1="21" x2="172.899" y2="21" gradientUnits="userSpaceOnUse">
<stop stop-color="#DC2626"/>
<stop offset="1" stop-color="#B01219"/>
</linearGradient>
<linearGradient id="paint1_linear_1_1154" x1="57" y1="21" x2="172.899" y2="21" gradientUnits="userSpaceOnUse">
<stop stop-color="#16A34A"/>
<stop offset="1" stop-color="#0B6B3A"/>
</linearGradient>
<linearGradient id="paint2_linear_1_1154" x1="5" y1="1" x2="45" y2="41" gradientUnits="userSpaceOnUse">
<stop stop-color="#16A34A"/>
<stop offset="1" stop-color="#0B6B3A"/>
</linearGradient>
</defs>
</svg>
